<?xml version="1.0" encoding="utf-8"?>
<!-- Generator: Adobe Illustrator 24.2.3, SVG Export Plug-In . SVG Version: 6.00 Build 0)  -->
<svg version="1.1" id="Layer_1" xmlns="http://www.w3.org/2000/svg" xmlns:xlink="http://www.w3.org/1999/xlink" x="0px" y="0px"
	 viewBox="0 0 546 669" style="enable-background:new 0 0 546 669;" xml:space="preserve">
<style type="text/css">
	.st0{fill:#D00500;}
	.st1{font-family:'ComicSansMS';}
	.st2{font-size:71.6801px;}
	.st3{fill:#FFD18D;}
</style>
<text transform="matrix(0.9409 -0.32 0.322 0.9467 250.8245 457.9998)" class="st0 st1 st2">A</text>
<g transform="translate(0.000000,669.000000) scale(0.100000,-0.100000)">
	<path d="M2304,6169c-10-4-33-8-50-8c-19-1-34-7-38-17c-4-12-14-14-36-9c-44,10-207-16-337-54c-40-12-84-21-97-21c-14,0-42-11-62-25
		s-43-25-51-25c-14,0-100-32-134-50c-9-5-35-14-58-20c-45-12-159-76-178-100c-22-28,5-21,68,19c35,23,69,41,76,41c6,0,24,6,40,14
		c15,8,75,29,133,47s135,45,171,60c107,45,181,59,352,70c163,9,186,13,287,44c41,13,80,16,152,13c54-2,98,0,98,4s-10,10-22,12
		C2577,6173,2324,6177,2304,6169z"/>
	<path d="M2810,6111c0-26,20-36,105-50c38-7,84-21,101-32c44-27,64-24,34,5c-29,28-147,81-202,91C2814,6131,2810,6130,2810,6111z"/>
	<path d="M2458,6080c-25-5-72-16-104-25c-38-11-91-16-153-16c-54,1-116-5-145-13c-28-8-87-22-131-32s-93-24-108-31c-16-8-36-12-44-9
		c-19,7-123-29-235-83c-123-59-178-81-200-81c-28,0-77-27-126-71c-26-23-58-40-80-44c-22-3-43-15-51-27c-24-38-11-34,145,38
		c28,13,54,24,58,24s44,16,89,36c104,46,133,55,181,59c21,2,51,12,66,24c53,38,95,58,142,65c26,4,58,16,73,28c22,17,35,20,75,15
		c34-4,65,0,102,13c29,10,83,21,120,24c38,3,77,10,87,16c11,5,39,10,64,10c27,0,63,10,93,25c49,25,104,33,104,16c0-6-4-13-10-16
		c-28-18,1-23,103-19c61,3,123,5,136,6c13,0,33-11,45-25c17-20,39-28,116-43c52-9,109-23,126-30c28-12,37-11,83,9c28,12,51,25,51,28
		c0,8-79,19-134,19c-23,0-81,9-130,19c-83,17-112,33-99,54c12,20-30,47-74,47c-37,0-45-4-53-25c-5-14-16-25-23-25c-8,0-19,11-25,25
		C2579,6092,2551,6095,2458,6080z"/>
	<path d="M2399,5935c-3-2-34-12-70-21c-43-11-115-17-224-19c-117-2-171-7-200-18c-22-9-58-17-80-17c-38-1-56-10-117-53
		c-14-9-60-24-102-32c-43-8-87-22-99-30c-21-15-21-15,5-15c14,0,45,7,68,15s71,15,105,15c46,0,77,7,117,25c30,14,68,26,84,26
		c16,1,44,6,63,12c19,5,84,10,145,11c84,1,120,5,146,19c59,29,92,35,123,22c19-8,47-9,85-4c84,12,109,12,197-1c44-7,94-12,110-11
		c102,2,132-1,207-20c46-11,108-25,138-30c30-4,80-16,110-24c30-9,76-20,102-24c30-5,62-19,85-38c49-38,83-56,91-48c7,7-51,63-96,92
		c-24,17-115,40-200,52c-30,4-57,13-61,19c-4,7-21,12-37,11c-16-2-45,2-64,8c-104,33-153,43-220,44c-55,2-81,7-99,21
		c-20,15-43,18-166,18C2467,5940,2401,5938,2399,5935z"/>
	<path d="M3212,5923c4-19,66-65,82-60c24,8,14,27-27,51C3215,5945,3207,5946,3212,5923z"/>
	<path d="M2349,5814c-13-7-36-13-51-14c-15,0-30-4-33-10c-3-5-20-10-38-10c-92-1-179-9-237-24c-79-19-201-37-211-30c-5,2-25-2-45-11
		c-20-8-44-15-53-15s-27-7-41-15c-71-41-88-46-135-33c-38,10-52,9-92-5c-27-9-59-17-72-17s-46-18-73-40c-29-23-65-42-86-45
		c-41-6-122-43-122-56c0-4-25-22-55-39c-51-29-65-47-49-63c10-10,57,13,89,43c40,37,100,66,155,73c24,3,49,12,55,19
		c18,25,104,68,132,68c64-1,220,29,258,49c22,11,51,21,66,21c14,0,34,9,44,20c16,17,26,19,89,14c56-5,80-3,111,11
		c43,19,69,22,245,31c322,16,490,0,621-60c63-29,182-57,373-87c70-11,137-24,147-29c10-6,38-10,62-10c25,0,61-7,81-15
		c20-9,46-13,59-10c21,6,60-8,117-40c33-19,60-19,60,0c0,8-6,15-13,15s-34,14-60,30c-26,17-55,30-63,30s-29,8-47,17
		c-18,10-63,20-102,24c-89,8-231,34-268,48c-16,6-47,11-71,11c-23,0-66,6-96,14s-75,17-100,21c-50,7-97,36-86,53c3,6,19,13,35,17
		c40,9,306-32,350-54c39-20,121-36,121-24c0,11-85,50-150,68c-30,9-109,23-175,31c-66,9-137,18-157,21c-27,4-47-1-71-16
		c-40-25-84-27-134-6c-22,9-68,15-122,15c-53,0-96,5-112,14C2377,5825,2369,5825,2349,5814z"/>
	<path d="M2184,5659c-10-4-41-8-67-8c-27-1-72-8-100-16c-29-8-115-24-191-35c-102-15-163-30-228-56c-81-32-96-35-149-29
		c-56,7-61,5-94-23c-32-29-88-52-126-52c-8,0-26-12-40-26c-40-44-101-84-127-84c-36,0-111-40-133-72c-11-14-36-37-57-49
		c-43-27-150-129-134-129c26,0,113,46,177,94c91,68,161,110,226,136c30,12,83,35,118,52c37,18,92,34,133,39c72,9,93,17,146,57
		c18,14,61,33,95,43s100,29,147,42c149,43,346,69,540,71c129,1,151-1,200-21c40-17,76-23,130-23c53,0,88-6,119-20c24-11,62-23,85-26
		c22-3,74-12,114-21c40-8,83-12,97-9c13,3,58-3,100-14c55-15,81-18,95-10c29,15,51,12,57-9c5-19,46-31,110-31c17,0,39-7,48-16
		c15-15,60-23,71-12c8,9-6,33-29,48c-13,8-48,14-85,15c-50,0-66,4-73,18c-6,9-22,17-37,17s-46,7-69,15c-24,8-84,20-135,26
		s-122,15-158,19c-78,10-232,45-259,60c-11,5-40,10-65,10c-24,0-57,5-73,11c-15,6-50,13-78,15c-27,2-67,6-87,10c-21,3-51,1-68-4
		c-18-7-49-8-78-3C2225,5663,2195,5663,2184,5659z"/>
	<path d="M2180,5519c-14-6-77-15-140-20c-160-11-281-44-365-99c-17-11-58-22-90-26c-64-6-170-52-255-109c-26-18-85-45-131-60
		c-103-34-125-45-215-106c-39-27-79-49-90-49s-37-9-59-20s-45-20-52-20c-6,0-24-16-39-35c-17-23-40-39-67-46c-57-15-149-109-107-109
		c18,0,125,57,139,74c8,9,19,16,26,16c8,0,27,11,42,24c16,14,63,40,104,60c160,74,315,144,339,151c14,4,53,21,88,36
		c34,16,67,29,72,29c10,0,83,34,125,58c11,6,32,13,46,16s41,16,60,29s63,31,99,41s80,27,99,39c23,14,63,23,120,29
		c47,5,113,11,146,15c33,3,70,12,82,20s35,13,50,12s38,1,50,5c13,4,48,1,81-8c60-15,118-10,147,14c11,9,18,7,32-7c13-13,35-18,78-19
		c33-1,103-9,155-18s106-18,120-20s57-12,95-23c102-30,160-43,192-43c16,0,34-5,40-11s62-15,124-20c63-6,137-17,166-25
		c58-16,83-18,83-6c0,5-28,17-62,26c-35,10-106,32-158,48c-52,17-120,34-150,39c-30,4-75,13-100,18c-108,26-150,33-230,40
		c-67,6-95,13-134,36c-56,32-90,35-336,25c-69-3-141-2-160,2C2220,5526,2194,5525,2180,5519z"/>
	<path d="M3605,5403c-16-16-16-17,1-30c22-16,37-16,52-1c9,9,8,16-5,30C3633,5424,3626,5424,3605,5403z"/>
	<path d="M2300,5389c-132-11-312-36-340-47c-14-6-63-18-110-27c-103-20-229-68-290-111c-25-18-65-37-90-44c-24-7-60-20-80-31
		c-19-10-75-37-125-59c-133-61-167-79-312-167c-82-49-164-91-215-107c-143-48-208-89-208-133c0-31,15-29,57,7c18,17,42,30,51,30
		c10,0,27,7,38,15c10,8,27,15,37,15c40,0,4-51-58-83c-16-8-72-61-124-117c-154-167-188-231-71-135c30,25,60,45,66,45s58,53,116,118
		c59,64,133,136,165,160c78,58,272,182,302,193c13,6,49,25,80,44s83,44,116,56c33,11,69,29,80,39c11,11,38,26,60,36
		c22,9,47,22,55,30c16,14,215,98,330,140c42,15,88,24,130,24c37,0,76,7,90,15c17,10,57,14,124,15c75,0,104,4,117,15
		c15,14,24,14,76,2c34-8,69-10,81-6c36,13,254,12,300-1c30-10,48-10,64-3c19,9,28,6,50-15c26-24,30-25,69-13c42,13,50,10,61-22
		c5-11,154-47,199-47c22,0,58-9,82-19c23-11,62-22,87-24c59-6,162-43,177-63c7-9,33-19,60-21c26-3,55-11,63-18s33-15,54-18
		c21-4,49-15,61-27c12-11,34-20,51-20c63,0,102-20,153-77c59-66,64-58,19,28c-28,54-35,60-57,56c-29-6-68,12-93,42
		c-10,12-27,21-38,21s-41,11-67,24c-54,27-139,56-165,56c-10,0-34,9-55,19c-21,11-61,22-90,26s-69,15-90,26c-20,10-44,19-52,19
		c-9,0-39,12-67,26c-50,25-53,26-85,10c-41-21-47-20-67,4c-17,20-78,37-182,49c-30,4-65,12-77,19s-46,12-75,12c-30,0-58,4-63,9
		C2662,5391,2408,5397,2300,5389z"/>
	<path d="M3710,5340c0-5,5-10,10-10c6,0,10,5,10,10c0,6-4,10-10,10C3715,5350,3710,5346,3710,5340z"/>
	<path d="M2270,5259c-52-4-115-12-140-18s-72-11-105-11c-36,0-76-8-101-19c-22-10-69-26-105-35c-75-19-201-72-246-104
		c-17-12-49-29-70-36c-21-8-64-30-97-50c-32-19-75-40-95-47c-20-6-53-24-73-40s-40-29-43-29c-16,0-185-106-230-144
		c-27-24-63-51-80-62c-16-10-48-36-70-58c-22-21-67-61-100-87s-106-95-162-152c-57-57-116-110-133-117c-36-15-39-30-5-30
		c14,0,29-8,36-21c9-17,7-25-10-43c-12-12-21-26-21-30c0-17,30,17,56,62c33,58,206,230,262,262c23,13,42,27,42,32s15,16,34,25
		c19,8,39,26,45,39s29,37,51,53s58,44,78,61c84,73,328,220,414,251c48,17,97,42,109,55s27,24,32,24c19,0,152,64,190,91
		c25,18,52,29,73,29c19,0,57,11,86,24c55,25,161,48,213,45c17-1,55,4,85,11s98,13,151,15c52,1,104,7,114,13c15,8,27,6,49-5
		c19-10,45-13,74-10c24,3,71-2,104-9c34-8,68-12,78-9c9,3,31-2,49-11c23-12,47-15,81-11c33,4,54,1,66-8c11-8,29-15,42-15s33-5,45-12
		c12-6,53-17,92-24c118-22,219-45,237-55c9-5,19-18,23-29c3-10,31-31,61-46c32-16,54-33,54-43c0-9,15-26,32-38c28-20,34-21,47-9
		c12,13,12,18-3,41c-10,15-38,41-64,58c-25,18-62,49-81,70c-19,20-43,37-53,37s-53,11-96,24c-42,13-97,29-122,35s-67,18-95,27
		c-27,8-70,19-95,23c-25,5-66,14-92,21c-27,7-60,10-75,7s-36-1-46,5C2722,5256,2432,5272,2270,5259z"/>
	<path d="M3702,5227c-18-21,33-63,86-72c26-4,58-20,83-41c68-56,83-41,20,20c-26,26-46,37-61,34c-14-2-26,4-31,15c-5,9-13,25-18,35
		C3771,5239,3717,5246,3702,5227z"/>
	<path d="M2459,5146c-3-3-57-6-120-6c-63-1-134-5-159-10s-70-13-100-19c-136-27-219-49-265-73c-27-14-68-31-90-38
		c-21-7-83-39-137-71c-53-33-101-59-106-59s-56-31-113-68c-172-114-361-237-406-265c-23-15-77-61-120-103s-103-92-133-112
		c-60-38-73-51-132-130c-22-29-46-56-54-59s-24-24-36-47c-11-22-38-56-59-74c-22-19-39-38-39-43s-16-26-36-45c-19-20-51-69-70-108
		c-38-82-39-86-20-86c7,0,28,24,47,53c38,60,89,122,167,205c30,32,64,73,77,93s29,42,37,50c7,8,24,29,37,47c12,18,41,42,64,54
		c23,11,62,43,87,70c42,47,126,109,225,168c23,14,61,42,85,63c24,20,49,37,55,37s20,12,32,28c11,15,38,36,59,47
		c86,45,163,91,229,140c39,28,90,59,115,69s52,23,60,30c23,20,102,63,130,71c14,4,52,20,85,36c33,15,94,35,135,44s89,21,106,26
		s45,9,63,9s61,7,95,16c42,11,77,14,111,9c28-4,102-9,166-10c64-2,126-8,137-14s45-11,74-11c30,0,62-6,73-14c11-7,48-16,82-19
		c34-4,76-13,95-21c18-8,75-21,127-31c111-19,212-66,272-126c23-23,62-50,88-62c25-11,68-41,94-66s60-52,75-60c15-7,43-28,62-46
		s51-40,71-48s54-30,75-49c22-18,57-42,78-53s53-37,70-58c17-22,48-48,68-58c39-20,157-145,172-182c4-12,10-17,13-10
		c18,49-230,343-291,343c-19,0-29,10-46,45c-22,45-23,45-46,30c-33-21-44-19-44,9c0,17-12,34-37,53c-21,15-43,35-50,43
		c-10,12-15,13-32,3c-31-19-39-16-46,17c-4,20-17,36-36,45c-16,9-29,20-29,26c0,5-15,16-33,24c-18,7-41,23-52,35s-34,27-51,35
		c-17,7-54,33-83,59c-28,25-59,46-69,46c-9,0-44,11-77,24c-61,24-162,47-315,72c-118,20-124,21-148,42c-17,15-45,20-138,26
		c-64,4-128,9-143,12C2477,5149,2462,5149,2459,5146z"/>
	<path d="M3534,5049c-7-12-2-16,87-66c50-28,59-30,70-17c10,12,8,19-11,39c-13,14-33,25-44,25c-12,0-30,7-40,15
		C3572,5063,3544,5064,3534,5049z"/>
	<path d="M2280,5024c-25-2-83-9-129-15c-69-9-89-16-108-37c-22-23-24-24-41-9c-17,16-22,16-68,0c-27-9-61-24-76-34
		c-14-11-32-19-39-19c-18,0-119-50-155-77c-17-13-38-23-47-23c-8,0-37-17-64-38c-70-56-168-121-199-132c-15-6-36-19-48-30
		c-72-64-186-148-256-188c-30-17-76-48-102-69c-93-76-285-259-316-303c-33-47-92-120-164-204c-24-27-56-68-72-90
		c-16-23-60-71-97-108c-38-36-69-74-69-82c0-22,29-7,62,33c14,16,44,39,66,50c23,12,46,30,52,41s43,58,83,104
		c86,100,134,162,165,213c13,21,42,52,64,68c53,40,132,111,176,160c104,114,177,169,187,143c7-17-45-78-174-208
		c-52-52-107-113-123-134c-16-22-63-80-106-129c-98-114-129-156-176-237c-21-36-46-74-56-85s-40-63-66-115s-67-125-91-162
		s-53-98-64-135s-30-87-42-110c-18-35-19-45-9-55c11-11,17-9,33,11c11,13,22,35,26,50c7,32,43,105,86,174c18,29,44,77,58,107
		c68,145,86,177,131,238c27,36,58,81,70,101s60,79,108,131c47,52,121,138,164,190c96,118,116,140,126,140c4,0,20,20,34,44
		c14,25,40,54,56,66c17,12,55,59,85,104c30,46,72,99,93,118c40,36,126,98,137,98c3,0,42,24,86,54c106,73,202,103,350,111
		c32,2,66,8,77,14c12,6,34,11,51,11c16,0,42,6,58,14c15,8,60,24,98,36c63,19,89,20,260,17c108-3,202-9,218-16c16-6,50-11,77-11
		c38,0,58-7,100-35c29-19,62-35,75-35c24,0,229-93,256-116c19-17,155-64,183-64c11,0,32-12,47-26s46-30,69-35s53-21,68-34
		c15-14,47-32,72-40c52-17,134-80,232-177c37-38,71-68,75-68s39-27,76-60c38-33,73-60,79-60c13,0,87-83,108-120c50-91,60-106,79-117
		c11-7,30-32,42-55c12-24,35-59,50-78c16-19,29-40,29-47s5-13,11-13c8,0,9,11,4,33c-4,17-8,48-9,67c-1,29-5,36-24,38
		c-24,4-58,64-47,82c11,17-16,51-52,66c-27,12-40,27-59,70c-17,38-35,61-59,75c-19,11-48,39-65,61c-32,44-75,78-100,78
		c-9,0-32,22-52,49c-21,27-54,62-75,78c-21,15-41,33-45,39s-20,17-36,23c-16,7-39,25-51,41c-17,23-32,31-71,36s-55,13-69,33
		c-24,33-98,71-140,71c-39,0-69,15-95,48c-16,21-25,23-58,18c-34-6-42-3-59,18c-23,29-89,57-117,49c-14-3-26,4-42,25
		c-28,38-69,56-108,47c-26-5-34-2-56,28c-19,25-37,36-65,41c-21,3-50,15-64,27c-18,13-34,18-48,14c-12-4-65-1-119,5
		c-74,10-105,10-130,1c-25-8-41-8-64,0c-24,9-46,8-91-1c-33-7-82-14-110-15c-27-1-77-7-110-14c-33-6-85-14-115-18c-30-3-64-12-75-19
		c-36-24-214-84-220-74c-3,5,7,16,22,24c16,7,36,23,46,34c28,31,165,88,179,74c8-8,18-6,36,8c14,11,35,20,47,20s39,7,58,15
		c20,8,65,15,99,15c35,0,92,7,128,16c53,12,72,13,103,3c29-10,49-10,89-1c39,10,58,10,84,0c26-9,41-9,74,2c37,12,42,12,63-8
		c16-15,36-22,64-22c22,0,56-7,75-14c19-8,44-13,55-10c14,4,38-7,72-31c29-20,62-40,74-44c12-5,49-25,82-45s78-41,100-47
		c21-6,48-17,59-25c11-7,29-11,41-8c14,3,28-3,45-20c14-16,34-26,51-26c15,0,31-5,34-10c11-17,106-62,120-56c7,2,21-4,31-16
		c11-11,45-35,76-54c32-18,74-49,93-68s52-40,72-45c29-8,79-50,213-182c96-94,187-177,202-185c14-8,30-24,34-36c9-30,47-88,57-88
		c16,0-5,65-27,85c-26,24-76,90-76,102c-1,4-26,25-56,47c-45,31-55,42-50,60c7,29-8,50-32,44c-11-3-24-3-29,1c-17,12-43,61-43,80
		c0,14-9,23-27,27c-42,11-70,32-77,60c-5,18-13,24-34,24c-18,0-41,12-65,35c-33,31-42,35-72,29c-31-6-35-3-53,33c-25,49-49,69-90,78
		c-24,5-40,17-53,40c-29,48-179,165-212,165c-8,0-21,7-28,17c-18,21-87,52-117,53c-50,0-14-32,83-75c113-51,178-93,183-118
		c3-15-2-17-40-11c-24,3-54,14-68,24c-14,9-35,20-48,24c-12,4-27,16-33,27c-9,17-17,19-49,14c-34-6-41-3-55,19c-9,13-26,26-37,28
		c-33,5-47,34-24,51c17,13,17,14,1,30c-17,17-30,20-75,18c-14-1-38,2-52,8c-14,5-39,6-55,2c-23-6-32-3-51,16c-15,16-29,22-42,18
		c-10-3-39,1-64,9c-26,9-59,13-76,10c-20-4-47,1-79,15C2522,5030,2438,5034,2280,5024z"/>
	<path d="M3746,4955c-9-9-16-21-16-26c0-18,49-59,71-59c11,0,34-11,50-25c16-13,46-27,67-31c20-4,55-21,77-39c47-38,85-59,92-51
		c6,5-34,66-52,78c-5,4-19,8-31,8c-11,0-42,20-69,44c-38,36-52,43-66,35c-30-16-45-10-54,23c-6,17-20,37-31,45
		C3765,4969,3760,4969,3746,4955z"/>
	<path d="M3636,4855c-5-15,28-45,51-45c6,0,32-17,57-37c25-21,66-54,92-73c25-19,57-46,71-59c15-13,46-30,70-38c31-11,45-22,49-39
		c3-13,20-34,38-46c17-13,46-38,65-56c42-42,49-36,14,14c-14,21-34,59-42,83c-13,34-23,46-44,52c-38,10-58,28-74,68
		c-12,29-17,32-41,27c-52-13-57-12-60,14c-7,65-10,68-60,76c-33,5-58,17-85,40C3697,4872,3647,4882,3636,4855z"/>
	<path d="M2180,4763c-53-4-103-15-220-50c-103-31-128-42-205-93c-33-21-78-48-100-58c-22-11-51-29-65-42c-14-12-52-43-85-67
		c-33-25-76-61-95-80s-65-59-102-89c-73-60-98-93-108-139c-4-23-12-31-32-33c-19-2-38-18-64-55c-21-29-51-66-67-83
		c-33-36-107-153-107-170c0-6-7-17-15-24c-30-25-165-353-165-401c0-6-7-25-15-42c-8-18-28-72-46-122c-17-49-44-119-59-155
		c-90-206-117-503-50-549c22-15,28-46,7-38c-11,4-12-6-6-47c16-106,60-206,91-206c15,0,4,95-26,225c-50,212-57,264-45,325
		c6,30,17,91,24,135c14,95,37,145,65,145c19,0,20-6,17-148c-2-81-6-153-11-160c-9-14,9-170,28-237c27-97,36-146,36-195
		c0-47,11-63,25-40c3,6,14,10,24,10s28,11,41,25c19,20,21,27,10,40c-7,8-21,15-31,15c-21,0-24,11-9,26c7,7,5,28-6,64
		c-8,30-19,76-24,102s-13,56-19,67s-11,37-11,58s-5,56-10,78c-6,25-5,89,1,169c7,97,6,137-3,162c-10,28-8,48,11,131
		c13,54,31,118,41,143s21,65,25,90s43,119,88,209c64,130,95,179,148,240c37,42,91,113,119,158c53,86,187,220,320,321
		c36,27,74,59,84,71c11,11,23,21,29,21c5,0,49,27,98,59c50,33,106,65,127,72c20,6,42,15,47,19c29,23,285,90,344,90c17,0,40,6,51,12
		c15,10,25,10,38,2c12-8,24-8,40-1c15,7,29,7,45,0c25-12,151-33,200-33c17,0,41-7,52-16c14-10,31-13,57-9c31,6,44,1,82-24
		c24-17,48-31,53-31s25-9,45-20c51-27,118-37,118-18c0,28-79,84-105,74c-8-3-35,6-60,20c-25,13-57,24-71,24s-42,9-62,19
		c-79,40-160,54-327,56C2297,4765,2205,4765,2180,4763z"/>
	<path d="M1608,4659c-35-8-178-104-195-132c-4-6-24-24-44-39s-56-48-80-75c-24-26-73-78-109-114c-97-97-170-179-170-189
		c0-5-20-32-44-59s-52-63-62-80s-21-31-25-31c-6,0-91-110-132-170c-10-14-28-41-41-60s-57-68-96-109c-81-83-130-154-130-187
		c0-27-6-43-71-184c-144-316-167-376-155-406c11-29,38-10,57,41c11,28,33,90,50,138c35,104,187,438,229,504c34,53,51,66,74,57
		s21-20-24-105c-22-42-57-125-79-185s-62-161-89-224c-36-84-53-137-61-197c-11-89-22-118-76-203l-35-54v-126c0-103,4-133,20-169
		c11-24,20-56,20-72s12-53,27-83c22-46,28-52,40-40s11,26-8,96c-12,46-28,95-36,110c-19,38-23,255-5,286c21,37,55,26,63-20
		c3-20,11-44,18-52c8-10,13-52,13-123c1-59,4-112,8-118c4-5,13-28,20-50s21-50,32-62c22-24,53-20,43,6c-22,53-85,301-83,324
		c1,12-7,64-17,114c-16,81-17,101-6,160c12,64,53,190,107,328c13,33,33,89,44,125c12,36,48,119,81,185c42,85,61,137,65,175
		c9,77,60,179,146,291c187,243,259,329,336,403c45,44,82,86,82,93s7,13,16,13s36,17,59,38c24,20,53,46,66,58c13,11,43,41,67,66
		c31,34,60,53,112,73c38,15,72,31,76,36C1712,4672,1658,4671,1608,4659z"/>
	<path d="M2185,4634c-27-8-64-14-82-14c-65,0-336-106-388-151c-18-16-37-29-43-29s-25-16-44-36c-18-20-56-49-84-65
		c-60-35-240-198-270-246c-11-18-47-61-80-96c-53-58-134-181-134-206c0-5-13-31-30-58c-16-26-37-74-45-106c-8-31-26-79-39-106
		c-14-27-30-70-37-97c-6-27-17-58-24-69c-21-34-35-121-35-218c0-51-4-132-9-182c-14-146,23-407,68-481c29-49,47-55,62-21
		c8,18,6,38-6,80c-9,31-21,59-26,62c-5,4-9,16-9,28s-7,41-15,64s-17,94-20,158c-2,64-7,120-9,124c-6,9,19,205,27,219
		c4,5,22,85,41,177c31,149,41,180,91,279c31,61,74,136,96,166s56,79,76,109c65,99,120,165,194,236c41,39,99,96,131,128
		c31,31,63,57,72,57c8,0,38,21,68,46c55,47,205,124,242,124c12,0,30,6,41,14c11,7,58,23,105,35c67,16,107,20,188,17
		c57-2,105-6,108-9c3-2,22-1,42,4c25,5,46,4,67-6c27-12,58-15,192-17c25,0,44-6,47-14c8-21,96-54,145-54c34,0,68-10,118-35
		c45-22,86-35,111-35c23,0,42-5,45-13c2-7,26-18,53-25c26-7,64-26,83-43c93-79,181-144,229-171c29-17,61-42,70-55c9-14,33-42,52-63
		c40-42,103-128,125-169c8-16,22-31,31-35c10-4,14-13,11-25s6-32,24-53c15-18,28-38,29-44c0-6,8-22,19-35c10-13,23-40,30-60
		c6-20,20-44,31-54c10-9,21-33,25-54c4-25,28-62,76-121c39-47,75-93,80-102c11-20,30-23,46-7c8,8,3,19-18,39c-16,15-29,37-29,50
		c0,12-13,38-30,57c-16,18-30,41-30,51c0,9-14,35-30,56c-17,22-30,47-30,56s-11,32-25,51c-49,65-74,104-104,159c-16,30-56,89-90,130
		c-33,41-70,94-82,119c-11,24-42,63-68,87c-25,23-52,53-60,66c-7,14-27,33-44,42c-18,9-52,29-77,44c-126,78-372,185-526,227
		c-28,8-68,24-88,36c-38,22-79,34-171,48c-27,5-67,16-88,25C2506,4647,2258,4653,2185,4634z"/>
	<path d="M3061,4556c-7-8-8-17-4-19c57-35,150-76,187-81c30-5,49-14,56-27c6-10,21-19,34-19s40-17,63-39c28-26,54-40,80-44
		c26-5,53-19,80-44c76-72,103-93,118-93c9,0,15-10,15-25c0-18,7-26,25-31c34-9,75-59,75-94c0-48,17-79,47-86c62-15,130-55,170-101
		c58-67,114-150,119-179c5-26,60-111,100-155c13-14,24-35,24-48c0-16,4-21,15-17c23,8,45-4,56-30c13-36,30-29,22,9
		c-8,43-21,68-36,66c-34-4-39,1-33,35c5,23,2,37-8,45c-8,7-27,34-42,59c-15,26-42,59-60,75c-18,15-35,40-39,55
		c-6,28-119,164-192,232c-21,19-63,62-93,94c-30,33-66,70-80,82c-125,112-173,152-220,182c-30,19-66,45-80,57s-36,25-50,28
		s-50,15-80,27s-73,25-95,29s-65,22-96,39C3075,4575,3076,4575,3061,4556z"/>
	<path d="M2130,4508c-19-5-57-15-85-23c-27-8-65-16-83-19c-45-8-189-81-227-115c-16-15-43-36-59-45c-16-10-43-31-60-47
		s-74-67-126-114c-52-48-104-101-115-118c-31-51-115-166-163-227c-47-58-72-108-103-205c-10-33-28-75-39-93c-11-19-20-50-20-73
		s-8-71-19-107c-28-98-41-160-47-222c-8-84-4-264,6-301c6-19,10-48,10-65s11-67,24-112c30-101,84-167,126-157c35,9,35,10,10,52
		c-30,49-100,221-104,253c-2,14-9,83-15,153c-11,121-11,132,9,183c11,30,20,64,20,75c0,12,7,51,14,88c8,36,23,102,32,146
		c20,95,45,178,82,262c27,64,48,85,59,57c6-15-18-135-40-199c-13-40-26-123-33-215c-3-51-14-92-30-127c-39-78-46-197-23-335
		c26-152,45-210,92-285c34-55,44-64,64-60c30,6,42-12,14-20c-12-3-20-11-18-17c5-14,57-21,57-7c0,6,7,8,15,5c8-4,15-2,15,4
		c0,5-7,15-15,22s-15,18-15,24c0,18-59,138-84,171c-26,34-61,129-70,190c-14,95-16,222-3,239c32,44,57-17,57-144c0-28,8-58,21-79
		c11-18,34-75,51-125c39-117,81-203,121-243c35-37,49-40,68-17c11,14,10,19-7,33c-11,9-19,22-16,29c5,17-46,76-72,82
		c-17,5-22,16-27,60c-3,30-24,109-47,176c-23,66-41,131-40,145c2,24-9,75-39,176c-17,62-14,154,11,258c9,39,21,97,27,129
		c5,32,14,68,20,78s16,59,23,107c14,94,34,129,138,251c57,67,61,71,121,125c142,129,238,192,335,220c214,63,376,92,399,74
		c7-7,26-6,54,1c30,8,54,9,79,2c19-6,66-15,103-20c40-6,77-18,88-28c17-16,23-16,41-5c19,12,23,11,38-9c12-16,31-24,66-27
		c42-5,57-13,104-57c30-29,82-67,115-86s83-51,111-72c71-53,115-52,87,2c-18,38-59,70-89,70c-13,0-25,8-29,19c-3,10-29,29-58,41
		s-72,42-97,66c-27,27-54,44-68,44c-13,0-35,9-49,20s-39,20-55,20s-52,12-81,27c-41,21-65,27-112,26c-33-1-68,3-78,9
		C2473,4515,2176,4519,2130,4508z"/>
	<path d="M2290,4410c-25-4-63-15-85-23c-22-9-58-18-80-22s-46-11-53-17s-31-14-55-19c-94-17-221-72-267-114c-25-23-71-61-103-84
		c-107-78-237-269-237-348c0-18-16-81-35-140c-26-82-37-137-44-230c-11-142-2-226,34-316c14-34,30-93,36-132c6-38,17-83,25-99
		s14-33,14-39c0-5,6-23,14-40c8-18,16-40,20-50c3-9,17-22,31-27c18-7,25-17,25-38c0-32,49-91,77-93c10-1,33-3,50-5c47-3,49,10,7,48
		c-21,18-51,45-68,61c-17,15-38,29-47,32c-33,11-103,211-118,335c-5,47-16,106-24,130c-11,33-14,85-12,195c3,135,7,165,40,295
		c20,80,44,157,53,171c78,124,162,229,183,229c5,0,26,15,46,34c45,39,75,56,100,56c11,0,38,14,60,30c114,84,362,121,421,62
		c16-16,33-22,60-21c20,1,55-5,77-14c22-8,56-20,75-27s52-20,72-28s47-12,58-9c12,3,42-5,70-19c26-13,52-24,57-24s16-13,26-29
		c11-18,32-34,55-41c20-7,48-23,62-35c14-13,48-35,75-49c125-67,128-69,162-135c18-35,45-82,60-105s34-53,43-68c8-14,33-53,54-85
		c41-61,70-109,94-158c20-38,83-125,109-148c16-14,19-26,15-73c-4-50-3-56,17-61c11-3,21-9,21-13c0-5,8-6,19-3c16,4,17,9,9,41
		c-5,21-13,60-17,89c-6,45-13,57-59,100c-45,43-52,54-52,89c-1,56-66,169-111,192c-22,11-35,25-38,42c-1,14-14,35-26,48
		c-13,13-36,55-50,92c-19,48-37,78-61,97c-19,15-54,44-77,64c-55,47-85,63-122,63c-22,1-31,6-33,21c-6,30-32,55-59,55
		c-14,0-48,15-76,34c-45,29-148,80-212,106c-50,20-91,30-125,30c-20,0-50,6-66,14s-52,17-81,21c-66,9-93,26-74,49c16,18,94,22,136,6
		c15-6,64-13,108-16c45-4,84-11,86-16c9-25,41-45,82-52c24-4,62-15,84-25s65-28,95-42c60-26,102-55,158-110c21-19,50-41,65-47
		c15-7,53-31,84-54c30-24,67-51,81-60c32-21,42-37,42-68c2-58,61-155,167-273c32-36,48-66,88-163c20-49,60-102,70-92c4,4,2,28-5,53
		c-9,31-10,49-3,56c19,19,41-19,47-78c7-66,34-189,48-216c7-13,15-16,31-11c12,3,24,8,26,10c5,4-29,106-45,130c-7,12-22,57-33,100
		c-18,70-25,84-65,119c-37,33-44,45-40,66c5,21,0,31-24,48c-17,12-35,36-40,54c-5,17-18,60-27,95c-13,45-23,62-36,62
		c-28,0-29-26-3-61c27-37,28-72,3-77c-21-4-76,78-85,125c-4,19-2,39,4,46c19,22-27,81-110,143c-43,31-78,60-78,64c0,5-10,12-22,16
		c-32,10-120,68-147,98c-14,14-35,26-48,26s-29,10-39,25c-19,29-143,95-178,95c-13,0-35,9-49,20c-16,13-40,20-67,20
		c-22,0-55,7-72,16c-20,10-44,14-66,10c-20-3-49,1-70,9C2365,4421,2357,4422,2290,4410z"/>
	<path d="M3034,4348c-6-9,36-38,55-38c28,0,147-75,214-134c123-110,252-238,267-266c8-15,33-50,55-78c73-92,125-172,125-191
		c0-11,15-39,34-63c49-61,115-200,127-266c6-31,14-60,17-63c4-4,22-5,39-2c30,5,32,8,27,32c-4,14-17,42-30,62c-13,19-30,59-38,88
		c-7,29-25,64-38,79c-14,15-50,72-81,127c-78,142-161,274-197,315c-17,19-46,55-63,79c-18,26-66,67-112,98c-44,29-91,66-105,82
		C3250,4299,3059,4389,3034,4348z"/>
	<path d="M2208,4205c-4-4-44-8-90-9c-55-2-104-10-146-24c-82-29-192-87-217-115c-11-12-37-35-57-50c-83-62-164-234-213-454
		c-35-156,11-446,74-473c17-7,31-23,37-43c11-38,55-65,166-103c114-38,170-41,264-14c100,29,144,53,172,94c12,18,22,35,22,39
		c0,13-31,7-73-14c-64-33-94-40-197-49c-125-10-240,17-240,56c0,8-16,24-36,36c-23,14-37,30-41,50c-4,18-15,33-29,38
		c-27,11-48,75-60,180c-15,136-1,236,46,335c16,33,40,86,53,118c29,72,120,191,167,219c19,12,54,37,78,55c33,27,56,37,107,44
		c35,5,80,16,99,26c33,15,46,16,143,4c59-8,119-18,133-23c108-43,131-55,242-130c15-10,34-18,43-18c8,0,40-14,70-31
		c51-29,104-89,169-194c10-16,32-45,48-63c16-19,40-58,53-87s33-58,44-65c16-8,20-17,15-36s0-32,21-54c19-20,26-35,22-50
		c-5-21,3-63,37-205c9-33,18-85,21-117c4-39,11-58,22-63c22-8,33,12,28,55c-26,217-53,361-76,403c-12,23-30,67-40,96
		c-27,77-45,101-75,101c-23,0-24,2-18,36c6,33,3,40-39,82c-25,26-52,62-62,81c-30,59-113,138-159,151c-23,6-62,27-86,46
		c-23,19-51,34-60,34s-42,14-73,30c-31,17-67,30-80,30s-28,5-34,11c-5,5-37,14-69,19s-73,12-89,15C2228,4209,2212,4208,2208,4205z"
		/>
	<path d="M3250,4094c0-15,135-154,177-181c11-8,29-31,39-51c9-20,29-53,44-72c14-19,46-71,70-115c23-44,58-97,76-117
		c20-22,35-52,39-75c3-21,17-63,30-93s26-67,29-81c6-29,70-99,91-99c27,0,25,20-5,73c-16,29-39,80-50,112s-27,67-36,76
		c-9,10-20,39-25,64c-6,30-22,62-48,93c-21,26-46,62-55,79c-9,18-28,40-41,49c-14,9-25,23-25,31c0,21-26,68-58,102
		c-15,17-39,49-53,71c-13,22-33,42-44,46c-11,3-39,28-63,55C3298,4111,3250,4128,3250,4094z"/>
	<path d="M352,4083c-8-14-9-24-2-28c12-7,24,18,18,37C365,4100,359,4097,352,4083z"/>
	<path d="M2130,4080c-8-5-26-10-40-10c-74,0-283-167-374-299c-50-70-72-125-91-220c-14-66-14-91-5-157c7-44,15-100,19-125
		c7-46,34-91,80-132c13-12,34-32,46-45c22-21,28-22,121-17c162,10,252,43,322,119c59,64,99,130,117,193c14,46,19,54,37,51
		c46-7,49-150,5-249c-22-50-130-197-166-227c-9-7-45-32-81-57c-109-73-321-119-375-81c-11,7-34,17-52,20c-44,10-75,36-114,98
		c-56,89-87,102-81,36c3-40,12-62,63-162l20-39l64,7c60,6,64,5,83-19c28-35,87-45,107-19c13,19,14,19,28,0c13-18,16-18,58-4
		c55,19,103,34,155,47c23,6,53,22,68,36s42,31,60,39c50,21,193,214,195,262c1,12,13,36,28,53c79,90,63,297-30,376
		c-88,76-188,54-417-90c-92-58-150-133-150-193c0-78,99-76,233,5c71,43,108,81,105,108c-5,37-38,29-85-19c-79-83-174-112-181-56
		c-2,22,11,37,80,93c46,37,94,70,108,74c14,3,49,19,79,34c66,35,76,36,97,4c37-56-24-180-129-263c-96-76-119-85-221-86
		c-118-1-141,14-196,127c-31,64-41,98-46,157c-5,69-4,80,24,141c88,195,257,364,418,419c60,21,208,28,219,11c3-5,19-13,36-16
		c56-12,106-40,134-74c15-18,45-39,67-48c35-14,158-140,158-163c0-5,24-36,53-69c42-49,59-79,82-147c27-82,27-87,12-114
		c-22-36-22-37,12-43c38-8,44-35,32-145c-22-198-23-242-6-248c26-10,44,26,45,89c0,62,22,176,47,244c14,40,14,44-6,76
		c-11,19-21,50-21,69c0,20-9,46-20,61c-11,14-20,32-20,41s-9,25-20,36s-20,28-20,39c0,34-28,86-59,109c-17,12-31,28-31,35
		s-20,32-45,56s-45,48-45,52c0,11-74,49-94,49c-8,0-28,17-45,38c-37,48-164,109-253,123C2226,4087,2146,4091,2130,4080z"/>
	<path d="M286,4001c-4-5-2-12,3-15c5-4,12-2,15,3c4,5,2,12-3,15C296,4008,289,4006,286,4001z"/>
	<path d="M2113,3907c-111-45-167-83-247-169c-87-93-126-175-126-262c0-83,12-99,33-44c10,24,17,50,17,57c0,24,80,163,124,215
		c112,135,315,200,471,151c47-15,72-31,115-75c89-90,178-232,199-320c5-19,18-70,30-113c33-124,24-167-69-339c-63-117-75-146-66-161
		c10-15,12-16,22-2c6,8,16,15,22,15c14,0,44,51,73,125c30,77,48,100,65,83c13-13,11-34-10-155c-5-25,15-32,31-10c27,37,35,96,33,236
		c-3,207-4,214-18,238c-6,12-12,29-12,37c0,9-22,61-50,115c-27,54-50,104-50,110c0,5-39,54-87,109c-49,54-92,106-98,116
		c-16,27-150,68-240,72C2203,3940,2187,3937,2113,3907z"/>
	<path d="M2925,3911c8-16,24-32,35-36c11-3,25-16,32-28c6-12,32-49,58-82c29-37,54-83,63-116c9-31,26-64,38-75c26-23,49-67,49-91
		c0-10,11-35,25-55c19-28,25-50,25-92c0-30,5-58,11-61c6-4,8-22,4-44c-4-28-2-41,9-50c12-10,14-24,10-52c-5-30-3-40,10-45
		c32-12,44,12,35,68c-7,42-5,56,6,68c14,13,18,12,39-14c12-16,28-49,35-74c9-33,15-43,27-38c9,3,19,6,24,6c16,0,17,39,3,67
		c-8,15-31,58-50,96c-34,66-48,78-70,56c-19-19-36,1-30,37c4,22,1,37-9,45c-8,6-14,21-14,32c0,34-78,185-99,192c-12,3-21,19-26,42
		c-10,56-38,104-84,145c-23,20-41,41-41,47c0,12-101,81-119,81C2913,3940,2914,3931,2925,3911z"/>
	<path d="M3870,3863c0-9,9-26,20-38s31-40,43-63c27-49,94-149,120-179c25-28,38-51,78-135c17-38,35-68,39-68s23-15,42-34
		c26-25,42-33,57-29c11,3,21,8,21,11s-22,28-49,57c-33,34-54,67-61,96c-7,26-28,62-51,86c-21,24-39,48-39,54c0,7-8,21-17,32
		c-10,10-29,40-43,65c-15,28-32,47-42,47s-23,6-30,13c-6,6-9,12-5,12c13,0-22,58-45,74C3879,3884,3870,3884,3870,3863z"/>
	<path d="M2092,3727c-45-23-98-55-117-70c-40-32-123-154-136-200c-11-40-12-37,6-37c8,0,22,11,30,24c26,39,196,186,235,203
		c76,32,116,40,172,33c97-14,177-81,237-199c33-64,41-246,16-334c-11-34-26-73-34-87c-29-48-214-222-281-265c-37-24-71-49-75-55
		s-25-18-46-27c-52-20-44-27,15-12c36,9,46,16,46,32c0,20,1,20,17,5c15-16,17-16,30,0c11,15,14,15,23,2c8-13,10-13,10,3
		c0,13,8,17,32,17c25,0,41,9,70,41c36,39,39,41,60,27c13-8,35-18,50-21c21-6,28-3,33,13c3,11,10,20,14,20c14,0,50,76,70,149
		c11,41,27,81,36,90c46,52,62,228,26,299c-10,20-21,61-24,91c-4,33-15,65-30,85c-13,17-32,46-41,63c-24,47-79,99-136,128
		c-42,21-63,25-137,24C2180,3769,2170,3766,2092,3727z"/>
	<path d="M394,3632c-6-4-24-25-40-48c-16-22-48-66-72-97c-55-73-79-137-52-137c6,0,10,5,10,11s21,41,48,77c26,37,56,81,67,98
		c11,18,28,43,38,58C413,3621,413,3644,394,3632z"/>
	<path d="M3032,3223c-5-10-6-65-3-123c6-99,7-105,29-108c21-3,22-1,22,85c0,48-3,105-6,126C3067,3242,3047,3252,3032,3223z"/>
	<path d="M3990,3230c0-5,5-10,10-10c6,0,10,5,10,10c0,6-4,10-10,10C3995,3240,3990,3236,3990,3230z"/>
	<path d="M2270,3188c-29-40-38-68-22-68c19,0,72,74,72,99C2320,3241,2299,3229,2270,3188z"/>
	<path d="M3861,3196c-10-12-8-13,8-9c12,3,18,9,15,14C3877,3213,3874,3212,3861,3196z"/>
	<path d="M2544.3,2513.5L3081,2658l14-35c8-20,15-41,15-47c0-7-45-25-101-42c-55-16-101-33-102-39c-1-13,111-90,120-82
		c3,4,1,23-5,43c-10,35-10,36,22,49c82,35,81,35,111-55c26-79,52-120,76-120c7,0,8,7,4,18c-45,113-106,315-98,323c5,5,26,12,45,15
		l35,6l24-67c23-65,27-70,79-97c53-27,74-30,127-13c19,6,23,2,34-35c12-39,50-81,57-61c2,5-22,82-52,171c-55,161-55,161-33,170
		c37,15,217,63,221,59c3-2,7-16,11-30c6-25,3-27-42-38c-65-17-83-35-83-85c0-76,58-134,152-151c42-8,100,15,123,49
		c57,80-52,170-121,100c-28-27-27-63,2-95c20-23,17-29-14-29c-54,0-102,57-102,120c0,26,6,33,37,46c20,9,52,18,70,21s36,9,38,13
		s-3,26-12,49s-14,43-12,46c8,7,297,85,318,85c18,0,39-45,27-57c-3-3-38-14-78-25c-40-10-79-25-87-33c-21-20-18-71,6-103
		c26-35,135-123,147-119c23,8,13,24-30,46c-78,42-120,118-81,149c16,13,136,46,143,40c3-3,21-50,40-104c20-54,41-102,47-106
		c36-23,33,1-19,153c-30,89-53,167-51,173c3,7,21,17,41,23c41,13,47,8,66-52c50-160,85-247,102-256c11-6,22-8,24-6c3,3-20,78-50,168
		c-31,89-56,164-56,165s14,7,30,13c29,10,43,42,18,40c-7,0-114-29-238-64c-124-36-279-80-345-99s-262-73-435-121
		s-703.4-189.3-728.4-196.3 M3415,2665c15-41,25-81,22-89s-20-22-37-31c-51-26-79-5-111,83l-27,73l21,9c35,14,81,28,93,29
		C3383,2740,3400,2706,3415,2665z M3818,2630c3-30-37-74-60-65s-37,46-27,73c7,20,15,23,46,20C3809,2655,3815,2651,3818,2630z"/>
	<path d="M145,2930c-7-12,2-30,16-30c5,0,9,9,9,20C170,2941,155,2947,145,2930z"/>
	<path d="M219,2739c-7-14-8-45-4-90c8-77,25-94,25-24c0,26,7,60,16,76c8,17,13,37,10,45C258,2767,232,2763,219,2739z"/>
	<path d="M1930,2660c-8-5-11-12-7-16c3-4,12-2,19,3c7,6,22,13,33,16c16,4,16,5-5,6C1956,2669,1938,2666,1930,2660z"/>
	<path d="M2255,2533c-48-14-80-32-72-40c2-2,16,1,31,6c32,13,45-5,72-94c21-71,30-83,46-67c8,8,8,15,0,24c-16,20-54,146-47,158
		c3,5,17,10,31,10s22,4,19,10C2327,2553,2316,2552,2255,2533z"/>
	<path d="M4270,2524c0-8,5-12,10-9c6,3,10,10,10,16c0,5-4,9-10,9C4275,2540,4270,2533,4270,2524z"/>
	<path d="M2112,2479c2-8,12-40,22-71c11-32,17-60,14-63c-3-4-41,17-83,44c-82,54-113,64-100,34c4-10,19-52,33-93c28-84,29-86,39-77
		c4,4-4,37-16,73c-13,35-21,68-17,71c3,3,43-19,88-49c46-31,86-54,90-52c4,3,0,24-8,47s-21,64-28,92c-7,27-19,51-25,53
		C2114,2490,2110,2486,2112,2479z"/>
	<path d="M1162,2447c-42-13-37-29,11-32c20-1,34,2,32,6c-3,4,0,9,7,11c6,2,8,10,4,16C1208,2462,1207,2462,1162,2447z"/>
	<path d="M3744,2438c-4-15-1-25,12-35c16-11,21-10,39,7c20,21,20,21,1,36C3768,2466,3752,2464,3744,2438z"/>
	<path d="M940,2384v-36l37,7c21,4,41,9,46,12c14,8-4,23-28,23c-12,0-25,7-29,15C956,2433,940,2420,940,2384z"/>
	<path d="M1825,2404c-50-18-61-29-48-46c6-7,20-44,33-83c12-38,25-73,29-76c9-11,114,25,119,39c3,10-3,10-26-2c-44-23-71-20-84,8
		c-15,34-5,53,31,61c48,10,36,26-16,23c-47-3-48-3-51,29c-3,31-1,33,37,39c23,4,41,10,41,15C1890,2423,1872,2421,1825,2404z"/>
	<path d="M4156,2382c-9-15,6-52,20-52c9,0,14,11,14,30C4190,2389,4169,2402,4156,2382z"/>
	<path d="M1680,2350c-8-5-17-35-21-75c-3-36-9-69-13-72c-3-3-30,17-60,45c-55,52-95,69-81,35c3-10,16-53,27-95c12-43,25-78,30-78
		c12,0,10,10-13,79c-11,35-18,66-14,69c3,3,30-18,60-48s57-51,61-48c3,4,8,34,11,67c3,34,10,64,14,67c10,6,34-40,44-84
		c4-18,13-36,21-39c21-8,27,2,14,24c-6,10-23,50-38,90C1700,2342,1691,2357,1680,2350z"/>
	<path d="M3994,2317c-4-12,2-27,15-41c12-12,21-35,21-52c0-37,43-165,56-165c14,0,23,61,13,88c-5,14-9,39-9,56c-1,18-9,54-18,81
		c-15,42-22,49-45,50C4009,2335,3998,2330,3994,2317z"/>
	<path d="M3857,2285c-6-15,19-103,34-119c5-6,9-22,9-38c0-31,84-244,106-269c8-8,14-26,14-40c0-13,3-34,6-46c7-26,43-38,51-16
		c9,22-17,95-43,120c-13,13-27,45-34,76c-12,61-48,166-73,216c-9,19-17,47-17,63C3910,2286,3871,2324,3857,2285z"/>
	<path d="M1356,2260c-58-23-62-26-48-42c14-18,52-119,52-140c0-9,4-19,9-22c11-7,113,22,126,36c7,7,2,8-15,3c-68-20-89-18-101,8
		c-16,34-6,55,27,59c15,2,29,9,32,16c3,11-6,12-41,7c-44-7-46-6-53,20c-8,34,15,55,59,55c16,0,26,4,22,10
		C1417,2283,1414,2283,1356,2260z"/>
	<path d="M3748,2250c-18-17-25-80-10-80c5,0,17,9,27,20c14,15,16,26,9,49C3765,2266,3764,2266,3748,2250z"/>
	<path d="M4184,2236c-3-8,1-35,9-58c14-43,15-43,25-17c5,14,12,38,14,55c2,24-1,30-20,32C4199,2250,4188,2245,4184,2236z"/>
	<path d="M1230,2135c0-67-3-85-14-85c-13,0-84,81-106,119c-4,8-14,11-24,8c-14-6-4-22,56-87c40-44,79-80,86-80s12,14,13,38
		c0,20,2,67,5,105c4,44,2,67-5,67S1230,2189,1230,2135z"/>
	<path d="M3561,2138c-16-81-32-168-41-220c-5-27-16-58-24-70c-9-12-16-30-16-39s-25-54-55-99s-55-89-55-96c0-8-18-23-40-34
		c-23-12-58-35-78-53c-47-41-110-82-142-92c-14-4-48-25-77-47s-87-52-130-68c-104-37-131-50-137-66c-13-34,24-23,204,56
		c52,23,102,47,110,55c8,7,39,26,69,41c94,50,100,54,118,77c10,13,37,34,60,48c55,33,157,156,193,233c36,79,48,132,56,253
		c4,54,11,106,16,116c10,19,2,57-12,57C3575,2190,3567,2166,3561,2138z"/>
	<path d="M3767,2146c-17-13-17-16,3-75c11-33,20-70,20-81c0-12,14-51,32-88c18-38,32-85,33-109c1-29,10-52,31-79c29-39,33-45,69-102
		c11-17,28-32,38-32c9,0,17,1,17,3c0,11-46,117-79,180c-23,43-41,85-41,93s-9,32-20,53c-10,21-27,71-36,111c-14,64-40,141-47,140
		C3786,2160,3777,2153,3767,2146z"/>
	<path d="M923,2138c-53-26-55-121-4-172c83-83,192,16,136,124C1027,2144,975,2163,923,2138z M1008,2108c23-26,42-69,42-99
		c0-25-35-59-61-59c-30,0-75,50-83,94C892,2118,958,2160,1008,2108z"/>
	<path d="M3320,2130c-8-5-12-11-10-14c3-2,14,2,24,10C3356,2141,3344,2145,3320,2130z"/>
	<path d="M3460,2120c-8-5-18-6-22-4c-5,3-6-5-3-18c6-24-45-150-66-164c-6-3-20-27-32-53c-50-114-251-320-382-391
		c-44-25-98-54-120-67c-50-28-176-89-204-98c-12-3-27-18-35-33s-23-36-35-46c-27-24-27-36,0-36c11,0,36,17,55,39c19,21,54,46,77,56
		c125,53,348,169,378,195c19,17,47,40,62,53c110,85,138,111,157,141c11,20,38,56,60,82c21,25,44,67,51,93c7,25,18,55,25,66
		s18,45,25,75c6,30,16,60,21,67s8,21,6,32C3476,2124,3471,2127,3460,2120z"/>
	<path d="M3653,2114c-3-9-3-61,0-116c6-101,0-142-38-246c-24-68-59-115-119-162c-86-68-137-112-133-117c3-2,41,14,86,36
		c74,36,89,48,145,119c34,44,68,94,76,111c20,48,51,39,70-21c8-25,23-55,33-65c23-26,22-79-2-92c-14-8-23-6-36,9
		c-29,32-59,24-127-35c-35-31-74-58-88-62c-14-3-38-13-55-23c-16-10-47-20-69-23c-21-3-56-15-77-27c-22-11-48-20-59-20
		c-10,0-22-5-25-10c-4-6-31-25-61-43s-71-42-92-54c-66-41-116-63-142-63c-14,0-41-5-60-11s-84-11-145-13c-97-2-117-5-170-30
		c-72-34-95-53-95-78c0-24,8-23,52,7c20,14,50,25,65,25s46,5,68,10c104,26,187,42,259,50c64,8,103,21,209,70c71,33,159,80,196,103
		c70,46,153,87,178,87c9,0,58,21,111,46c89,43,100,46,156,41c34-3,68-8,77-11c29-12,18,80-19,149c-18,33-32,64-32,68
		c0,19-44,103-59,114c-13,9-18,29-19,90c-3,129-18,203-43,203C3664,2130,3657,2123,3653,2114z"/>
	<path d="M1931,2072c-30-10-57-24-59-31c-3-10,0-12,14-6c11,4,26,8,34,9c18,1,57-73,66-127c7-40,20-55,35-40c5,5-5,41-22,85
		c-33,81-33,108,0,108c11,0,23,5,26,10C2034,2095,1993,2091,1931,2072z"/>
	<path d="M757,2066c-3-8-9-42-13-75c-4-36-11-61-18-61s-34,23-61,50c-27,28-57,50-66,50c-15,0-13-12,14-92c34-103,34-104,43-95
		c4,3-3,33-16,66c-32,87-21,95,40,29c29-32,56-58,60-58s11,34,15,76c4,47,11,74,18,71c6-2,20-30,33-63c13-35,28-60,39-62
		c15-3,14,0-3,35c-11,21-27,62-36,91C789,2078,768,2095,757,2066z"/>
	<path d="M4117,2019c-11-15-13-29-7-50c16-56,30-63,48-24c15,33,15,68,0,83C4141,2045,4133,2043,4117,2019z"/>
	<path d="M1760,2023c-45-17-66-68-37-91c7-6,33-14,57-18c62-9,82-21,78-47c-4-29-44-48-76-36c-28,11-38,6-27-11c10-17,82-6,106,16
		c26,23,24,60-3,78c-13,7-44,17-70,21c-58,8-78,33-48,60c13,11,30,16,50,13c32-5,41,6,14,16C1786,2031,1781,2031,1760,2023z"/>
	<path d="M3240,2003c-19-8-42-36-91-113c-23-36-55-84-72-108c-16-24-27-45-24-48s22,2,43,11c57,23,141,115,175,190
		c16,36,29,67,29,70C3300,2012,3259,2010,3240,2003z"/>
	<path d="M1610,1972c0-4,4-12,9-17c13-15,45-114,39-120c-3-3-41,17-83,44c-76,50-112,63-103,39c3-7,18-50,34-95c16-46,33-83,38-83
		c10,0,4,29-20,92c-10,26-15,50-11,54s44-18,90-49c45-31,84-52,85-47c7,19-53,190-65,190C1616,1980,1610,1976,1610,1972z"/>
	<path d="M3015,1930c-40-14-61-31-105-84c-75-89-156-158-282-240c-75-48-110-77-119-98c-21-50,2-54,58-9c28,22,78,53,112,70
		c34,18,78,46,99,64c20,18,50,39,65,47c16,8,35,26,42,40s34,44,59,68s46,47,46,53c0,5,19,30,41,54c23,25,40,47,38,49
		S3043,1939,3015,1930z"/>
	<path d="M1365,1900c-3-5,4-27,15-50c11-22,27-64,34-93c11-42,17-51,32-49c27,5,29,10,12,29c-19,22-58,126-58,153
		C1400,1911,1376,1918,1365,1900z"/>
	<path d="M1206,1843c-10-36-11-188-1-188c6,0,9,7,8,15c-3,28,17,49,54,56c30,6,39,3,54-15c18-22,39-28,39-10c0,12-131,159-142,159
		C1215,1860,1209,1852,1206,1843z M1272,1767c12-22,11-23-25-32c-27-7-27-6-27,40v48l21-19C1252,1794,1266,1777,1272,1767z"/>
	<path d="M2676,1812c-42-22-72-46-84-66c-13-22-42-44-88-68c-38-19-100-51-137-71c-65-35-97-45-97-31c0,24,46,74,82,89
		c51,23,131,75,125,82c-3,2-16-1-29-8c-48-25-58-29-77-29c-11,0-23-4-26-10c-3-5-14-10-24-10c-11,0-42-16-71-36
		c-50-35-146-73-183-74c-10,0-38-9-61-20c-32-14-56-18-92-14c-47,5-122-9-189-36l-30-13l33-9c20-5,46-5,67,1c27,7,35,6,40-6
		c4-13,18-15,83-8c42,4,83,6,90,5c70-10,197,13,287,52c39,17,90,33,115,36c33,3,56,14,87,41c64,55,145,117,173,131
		c32,16,100,81,100,95C2770,1855,2744,1848,2676,1812z"/>
	<path d="M980,1783c-94-48-55-193,52-193c45,0,98,27,98,50c0,34-13,60-29,60c-28,0-31-10-10-31c25-25,11-55-30-64
		c-52-11-100,30-108,92c-4,30,0,43,18,62c18,20,29,22,66,18c30-3,43-1,40,7C1071,1802,1017,1802,980,1783z"/>
	<path d="M757,1653c-9-96-9-143,2-143c6,0,11,14,13,32c3,27,9,35,42,47c38,14,39,14,63-13c15-17,30-26,39-22c12,5-2,25-57,86
		c-39,44-77,80-84,80C767,1720,761,1695,757,1653z M820,1641l20-29l-30-11l-30-10v45C780,1685,787,1686,820,1641z"/>
	<path d="M3015,1700c-11-4-40-25-65-47s-76-56-115-76c-73-39-210-161-199-179c11-17,58,2,99,41c22,21,51,44,65,51
		c53,27,157,100,209,147c43,39,51,50,40,60C3041,1703,3027,1704,3015,1700z"/>
	<path d="M2385,1483c-30-20-59-28-120-34c-44-4-93-12-110-19c-110-43-498-42-554,1c-25,20-71,26-71,10c0-15-41-24-53-12
		c-6,6-15,11-20,11s-2-7,7-15c8-8,25-15,38-15c13-1,34-7,48-15s49-14,78-15c29,0,67-7,85-17c27-13,66-16,237-17c196,0,206,1,235,22
		c19,14,46,23,75,23c60,2,157,51,170,85C2447,1519,2442,1520,2385,1483z"/>
	<path d="M3896,1473c-9-10-7-63,3-63c11,0,20,59,11,65C3906,1478,3900,1477,3896,1473z"/>
	<path d="M2490,1395c-14-8-32-14-42-15c-9,0-57-16-107-35c-86-32-100-35-273-44c-238-12-355-7-449,18c-41,11-84,18-96,15
		c-11-3-48,8-84,25c-56,26-72,30-117,24c-29-3-52-9-52-13c0-8,73-20,123-21c16,0,27-5,27-14c0-8,18-19,43-25c23-6,53-15,67-20
		c14-4,49-11,79-15c30-3,67-13,82-21c33-17,117-18,169-3c29,9,48,8,92-5c61-18,167-10,268,19c30,9,80,22,110,29s72,20,94,30
		c21,9,47,16,56,16c23,0,82,49,74,61C2546,1414,2519,1411,2490,1395z"/>
	<path d="M3615,1394c-27-8-61-18-75-22c-22-6-76-35-147-79c-16-9-23-23-23-43c0-36,9-38,41-7c59,57,164,94,294,104
		c101,8,119,17,90,47C3774,1414,3685,1414,3615,1394z"/>
	<path d="M1134,1315c16-14,33-25,38-25c4,0,17-9,28-20c13-13,33-20,56-20c20,0,53-8,73-19c55-28,132-51,172-51c19,0,55-7,80-14
		c24-8,89-17,144-20s127-10,160-17c33-6,71-11,85-12c87-1,332,29,417,52c43,12,67,46,43,61c-14,9-69-2-130-24c-32-12-103-20-248-27
		c-174-8-206-7-232,6c-17,9-56,15-97,15c-72,0-229,25-247,38c-14,11-80,29-131,37c-22,4-46,11-52,17c-7,6-27,8-45,4
		c-31-5-61,3-59,18c3,22-3,26-41,26h-43L1134,1315z"/>
	<path d="M924,1309c-5-8,48-49,64-49c5,0,29-13,53-30c26-17,51-27,62-24c10,3,30-5,47-18s43-33,59-45c35-28,47-29,54-4
		c7,28-4,40-59,60c-28,10-84,38-125,62C1009,1302,935,1326,924,1309z"/>
	<path d="M770,1271l-25-8l27-13c16-8,40-10,63-6c34,7,36,8,19,21C833,1281,809,1282,770,1271z"/>
	<path d="M3780,1260c-29-22-79-34-135-31c-42,2-158-22-200-41c-15-7-24-18-23-27c3-13,15-15,68-12c36,2,83,10,105,18
		c22,9,57,17,78,18c50,4,96,23,130,53C3848,1280,3829,1298,3780,1260z"/>
	<path d="M876,1211c-15-6-2-18,68-65c47-32,107-64,132-72c25-7,67-25,93-40c40-21,52-24,70-15c24,13,41,7,41-14c0-34,144-79,249-77
		c18,0,44-6,57-14c12-9,42-17,66-19c24-3,63-10,87-16c31-9,49-9,61-2c22,15,144,8,204-11c64-21,130-21,147,0c21,25-6,34-101,34
		c-47-1-110,2-140,5c-103,12-305,46-335,56c-16,6-55,15-85,19c-110,17-153,30-174,53c-16,17-38,26-79,30c-67,8-94,19-167,68
		c-123,81-137,89-156,88C904,1219,887,1215,876,1211z"/>
	<path d="M3244,1180c-66-10-123-28-156-51c-14-11-40-19-58-19c-17,0-43-9-57-20c-21-16-41-20-107-20c-147,0-358-55-391-103
		c-25-36-3-37,85-5c47,16,103,34,125,38c81,17,182,32,267,40c53,5,102,16,127,29c22,12,49,21,59,21s31,14,47,30c33,34,42,36,66,14
		c16-14,20-14,43,1c14,10,33,14,45,10c24-7,37,11,21,30C3347,1191,3325,1192,3244,1180z"/>
	<path d="M1307,1137c-3-8-2-19,2-25c11-18,77-42,115-42c19,0,37-4,40-9s29-11,58-14s86-12,126-21c66-15,115-20,307-30
		c33-2,80-7,105-11c32-5,70-1,133,14c49,12,102,21,118,21c42,0,89,26,89,50c0,28-18,34-47,15c-58-38-303-54-458-30
		c-60,9-125,14-145,11c-19-3-60,1-90,9s-71,15-90,15c-20,0-71,14-113,30C1373,1152,1315,1158,1307,1137z"/>
	<path d="M949,1030c40-37,91-54,91-31c0,15-42,41-66,41c-12,0-27,7-34,15s-18,15-24,15C910,1069,925,1051,949,1030z"/>
	<path d="M3515,1045c-34-7-84-11-116-8c-43,4-65,1-90-12c-19-9-68-21-109-26c-130-16-154-20-196-40c-26-12-62-19-104-19
		c-98,0-277-38-372-79c-93-40-35-57,70-22c38,13,101,22,178,26c65,4,138,13,162,22c23,8,49,12,58,9c8-3,31,1,51,9c19,8,53,15,75,15
		s49,5,61,12c12,6,54,15,92,18c39,4,90,12,115,18s90,20,145,32c133,28,149,33,147,45C3679,1060,3582,1060,3515,1045z"/>
	<path d="M1082,968c6-18,115-75,157-82c20-3,68-19,106-36c39-16,83-30,98-30s54-9,86-20c32-10,89-22,127-25c38-4,82-11,97-15
		c17-6,36-5,51,1c16,8,43,6,99-5c87-18,213-21,222-5c4,6,5,12,3,14s-61,6-132,10s-165,13-210,22c-115,22-181,32-258,42
		c-37,4-73,13-81,19c-7,7-56,20-108,30c-52,11-121,32-154,47C1088,978,1078,982,1082,968z"/>
	<path d="M2293,922c-66-28-74-37-45-46c27-9,92,10,118,35C2416,958,2385,962,2293,922z"/>
	<path d="M1040,880c0-22,49-59,86-65c22-4,66-20,99-35c33-16,69-30,80-33s45-15,75-26c30-12,56-21,57-21c2,0,3,10,3,23
		c0,23-6,25-215,78c-22,6-73,28-112,50C1073,873,1040,886,1040,880z"/>
	<path d="M3491,851c-17-11-7-41,13-41c17,0,39,34,29,44C3524,862,3508,861,3491,851z"/>
	<path d="M3300,840c-30-4-84-17-120-29c-42-14-97-24-155-26c-49-2-113-8-141-14c-29-6-110-11-182-12c-92-1-144-7-178-19
		c-52-17-70-44-32-46c13-1,39-3,58-4s60,4,90,10c30,7,75,12,100,12c41,1,181,12,290,24c25,3,61,9,80,14c20,5,49,9,65,9
		c29-1,118,19,200,44c24,7,41,19,43,30C3422,852,3403,853,3300,840z"/>
	<path d="M2290,788c-19-5-38-15-42-21c-13-21,3-27,33-12c16,9,34,13,39,10c11-7,98,14,106,26C2433,803,2334,801,2290,788z"/>
	<path d="M1533,713c-26-10-11-22,40-31c149-29,172-31,181-22c15,15,5,19-83,40C1589,720,1556,723,1533,713z"/>
	<path d="M1872,665c12-13,180-54,195-48c7,3,13,11,13,18c0,8-23,14-62,19c-35,3-83,9-108,12C1885,670,1868,669,1872,665z"/>
	<path d="M2233,642c-91-3-106-9-80-30c8-7,27-7,61,0c35,7,60,7,90-2c23-6,46-10,51-9c6,2,28-2,50-8c108-30,155-35,281-29
		c190,9,234,15,234,33c0,12-33,14-222,12c-233-2-327,3-337,18C2351,643,2329,645,2233,642z"/>
	<path d="M1463,602c4-5,26-13,50-17c23-3,65-12,92-20c70-19,125-26,125-14c0,16-50,32-125,40c-38,4-88,11-109,15
		C1469,611,1459,610,1463,602z"/>
	<path d="M1848,553c-21-5-23-14-6-31c14-14,104-16,113-3C1966,538,1885,563,1848,553z"/>
	<path d="M2046,521c-3-5,4-11,17-14c36-9,238-29,287-28c25,0,67-7,93-15c36-12,52-13,60-5s7,15-4,27c-13,12-50,16-179,20
		c-90,3-171,9-181,15C2117,533,2053,533,2046,521z"/>
</g>
<polygon class="st0" points="276.5,412.2 270.5,415.6 266.9,409.3 272.9,405.8 "/>
<g>
	<g>
		<path d="M228.5,658h-4.2v-16c0-0.7,0-1.5,0.1-2.4c0-0.9,0.1-1.8,0.2-2.8h-0.1c-0.1,0.7-0.3,1.3-0.4,1.7c-0.1,0.5-0.2,0.9-0.4,1.2
			l-7.3,18.3h-3l-7.3-18.1c-0.1-0.3-0.2-0.6-0.3-1.1c-0.1-0.5-0.3-1.1-0.4-1.9h-0.1c0.1,0.9,0.1,1.8,0.1,2.7c0,0.9,0,1.9,0,3V658
			h-3.9v-25.2h6l6.4,16.3c0.3,0.6,0.5,1.2,0.6,1.7c0.2,0.5,0.3,1,0.4,1.5h0.1c0.2-0.7,0.4-1.3,0.6-1.8c0.2-0.5,0.4-1,0.5-1.4
			l6.5-16.2h5.8V658z"/>
		<path d="M239.4,658l9.4-25.2h4.8l9.3,25.2h-4.7l-2.1-6h-10l-2,6H239.4z M247.2,648.5h7.8l-3.4-9.9c-0.1-0.3-0.2-0.5-0.2-0.8
			s-0.1-0.6-0.2-1H251c-0.1,0.3-0.1,0.6-0.2,0.9s-0.1,0.5-0.2,0.8L247.2,648.5z"/>
		<path d="M271,658l9.4-25.2h4.8l9.3,25.2h-4.7l-2.1-6h-10l-2,6H271z M278.8,648.5h7.8l-3.4-9.9c-0.1-0.3-0.2-0.5-0.2-0.8
			c-0.1-0.3-0.1-0.6-0.2-1h-0.1c-0.1,0.3-0.1,0.6-0.2,0.9c-0.1,0.3-0.1,0.5-0.2,0.8L278.8,648.5z"/>
	</g>
</g>
<g>
	<path class="st0" d="M502.2,302.3l-45.8,45.8l-6.6-6.6l45.8-45.8c1.8-1.8,4.7-1.8,6.6,0l0,0C504,297.6,504,300.5,502.2,302.3z"/>
	<g>
		<g>
			<polygon class="st3" points="449.8,341.6 428,368 456.4,348.1 			"/>
		</g>
		<g>
			<polygon points="432,363.2 428,368 433.2,364.4 			"/>
		</g>
	</g>
</g>
</svg>
